<svg xmlns="http://www.w3.org/2000/svg" version="1.1" xmlns:xlink="http://www.w3.org/1999/xlink" width="1000" height="1000"><style>
    #light-icon {
      display: inline;
    }
    #dark-icon {
      display: none;
    }

    @media (prefers-color-scheme: dark) {
      #light-icon {
        display: none;
      }
      #dark-icon {
        display: inline;
      }
    }
  </style><g id="light-icon"><svg xmlns="http://www.w3.org/2000/svg" version="1.1" xmlns:xlink="http://www.w3.org/1999/xlink" width="1000" height="1000"><g><g transform="matrix(1,0,0,1,0,0)"><svg xmlns="http://www.w3.org/2000/svg" version="1.1" xmlns:xlink="http://www.w3.org/1999/xlink" width="1000" height="1000"><svg xmlns="http://www.w3.org/2000/svg" viewBox="0 0 1000 1000"><defs><linearGradient id="b" gradientTransform="rotate(-45 .5 .5)"><stop offset="0%" stop-color="hsl(210, 90%, 50%)"></stop><stop offset="100%" stop-color="hsl(346, 84%, 61%)"></stop></linearGradient><clipPath id="a"><path fill="currentColor" d="M828 679q-42 179-225 176t-317.5-95-163-273.5T262 249t350-87 220 153.5-4 363.5"></path></clipPath></defs><g clip-path="url(#a)"><path fill="url(#b)" d="M828 679q-42 179-225 176t-317.5-95-163-273.5T262 249t350-87 220 153.5-4 363.5"></path></g></svg></svg></g></g></svg></g><g id="dark-icon"><svg xmlns="http://www.w3.org/2000/svg" version="1.1" xmlns:xlink="http://www.w3.org/1999/xlink" width="1000" height="1000"><g><g transform="matrix(1,0,0,1,0,0)"><svg xmlns="http://www.w3.org/2000/svg" version="1.1" xmlns:xlink="http://www.w3.org/1999/xlink" width="1000" height="1000"><svg xmlns="http://www.w3.org/2000/svg" viewBox="0 0 1000 1000"><defs><linearGradient id="b-dark" gradientTransform="rotate(-45 .5 .5)"><stop offset="0%" stop-color="hsl(210, 90%, 65%)"></stop><stop offset="100%" stop-color="hsl(164, 95%, 43%)"></stop></linearGradient><clipPath id="a-dark"><path fill="currentColor" d="M828 679q-42 179-225 176t-317.5-95-163-273.5T262 249t350-87 220 153.5-4 363.5"></path></clipPath></defs><g clip-path="url(#a-dark)"><path fill="url(#b-dark)" d="M828 679q-42 179-225 176t-317.5-95-163-273.5T262 249t350-87 220 153.5-4 363.5"></path></g></svg></svg></g></g></svg></g></svg>